<mxfile host="app.diagrams.net" modified="2022-12-09T19:18:51.481Z" agent="5.0 (Windows NT 10.0; Win64; x64) AppleWebKit/537.36 (KHTML, like Gecko) Chrome/108.0.0.0 Safari/537.36" etag="zLYg3-rBmqkJEwPY48GU" version="20.6.0" type="github">
  <diagram id="tyh3BbqqU5Aa6YJ-12lD" name="Stránka-1">
    <mxGraphModel dx="957" dy="535" grid="1" gridSize="10" guides="1" tooltips="1" connect="1" arrows="1" fold="1" page="1" pageScale="1" pageWidth="827" pageHeight="1169" math="0" shadow="0">
      <root>
        <mxCell id="0" />
        <mxCell id="1" parent="0" />
        <mxCell id="Qde1e1kA7MSNwPP84bWM-2" value="Odesílatel" style="shape=umlActor;verticalLabelPosition=bottom;verticalAlign=top;html=1;outlineConnect=0;" parent="1" vertex="1">
          <mxGeometry x="610" y="180" width="30" height="60" as="geometry" />
        </mxCell>
        <mxCell id="Qde1e1kA7MSNwPP84bWM-3" value="Adresát" style="shape=umlActor;verticalLabelPosition=bottom;verticalAlign=top;html=1;outlineConnect=0;" parent="1" vertex="1">
          <mxGeometry x="600" y="390" width="30" height="60" as="geometry" />
        </mxCell>
        <mxCell id="Qde1e1kA7MSNwPP84bWM-4" value="Balíková společnost" style="rounded=0;whiteSpace=wrap;html=1;align=left;labelPosition=center;verticalLabelPosition=middle;verticalAlign=top;fontStyle=1;fontSize=14;" parent="1" vertex="1">
          <mxGeometry x="220" y="15" width="360" height="665" as="geometry" />
        </mxCell>
        <mxCell id="Qde1e1kA7MSNwPP84bWM-1" value="Podání balíčku" style="ellipse;whiteSpace=wrap;html=1;" parent="1" vertex="1">
          <mxGeometry x="310" y="40" width="110" height="60" as="geometry" />
        </mxCell>
        <mxCell id="Qde1e1kA7MSNwPP84bWM-6" value="Provedení platby" style="ellipse;whiteSpace=wrap;html=1;" parent="1" vertex="1">
          <mxGeometry x="310" y="110" width="110" height="60" as="geometry" />
        </mxCell>
        <mxCell id="Qde1e1kA7MSNwPP84bWM-7" value="Úředník" style="shape=umlActor;verticalLabelPosition=bottom;verticalAlign=top;html=1;outlineConnect=0;" parent="1" vertex="1">
          <mxGeometry x="130" y="320" width="30" height="60" as="geometry" />
        </mxCell>
        <mxCell id="Qde1e1kA7MSNwPP84bWM-9" value="Vytvoření objednávky" style="ellipse;whiteSpace=wrap;html=1;" parent="1" vertex="1">
          <mxGeometry x="310" y="320" width="110" height="60" as="geometry" />
        </mxCell>
        <mxCell id="Qde1e1kA7MSNwPP84bWM-10" value="" style="endArrow=none;html=1;rounded=0;fontSize=14;exitX=1;exitY=0.5;exitDx=0;exitDy=0;" parent="1" source="Qde1e1kA7MSNwPP84bWM-1" target="Qde1e1kA7MSNwPP84bWM-2" edge="1">
          <mxGeometry width="50" height="50" relative="1" as="geometry">
            <mxPoint x="520" y="280" as="sourcePoint" />
            <mxPoint x="510" y="160" as="targetPoint" />
          </mxGeometry>
        </mxCell>
        <mxCell id="Qde1e1kA7MSNwPP84bWM-11" value="" style="endArrow=none;html=1;rounded=0;fontSize=14;exitX=1;exitY=0.5;exitDx=0;exitDy=0;" parent="1" source="Qde1e1kA7MSNwPP84bWM-6" target="Qde1e1kA7MSNwPP84bWM-2" edge="1">
          <mxGeometry width="50" height="50" relative="1" as="geometry">
            <mxPoint x="410" y="130" as="sourcePoint" />
            <mxPoint x="570" y="200" as="targetPoint" />
          </mxGeometry>
        </mxCell>
        <mxCell id="Qde1e1kA7MSNwPP84bWM-17" value="" style="endArrow=none;html=1;rounded=0;fontSize=14;exitX=0;exitY=0.5;exitDx=0;exitDy=0;" parent="1" source="Qde1e1kA7MSNwPP84bWM-9" target="Qde1e1kA7MSNwPP84bWM-7" edge="1">
          <mxGeometry width="50" height="50" relative="1" as="geometry">
            <mxPoint x="410" y="340" as="sourcePoint" />
            <mxPoint x="180" y="460" as="targetPoint" />
          </mxGeometry>
        </mxCell>
        <mxCell id="Qde1e1kA7MSNwPP84bWM-19" style="edgeStyle=orthogonalEdgeStyle;rounded=0;orthogonalLoop=1;jettySize=auto;html=1;exitX=0.5;exitY=1;exitDx=0;exitDy=0;fontSize=14;" parent="1" source="Qde1e1kA7MSNwPP84bWM-9" target="Qde1e1kA7MSNwPP84bWM-9" edge="1">
          <mxGeometry relative="1" as="geometry" />
        </mxCell>
        <mxCell id="Qde1e1kA7MSNwPP84bWM-20" value="Potvrzení platby" style="ellipse;whiteSpace=wrap;html=1;" parent="1" vertex="1">
          <mxGeometry x="310" y="250" width="110" height="60" as="geometry" />
        </mxCell>
        <mxCell id="Qde1e1kA7MSNwPP84bWM-24" value="" style="endArrow=none;html=1;rounded=0;fontSize=14;exitX=0;exitY=0.5;exitDx=0;exitDy=0;" parent="1" source="Qde1e1kA7MSNwPP84bWM-20" target="Qde1e1kA7MSNwPP84bWM-7" edge="1">
          <mxGeometry width="50" height="50" relative="1" as="geometry">
            <mxPoint x="430" y="240" as="sourcePoint" />
            <mxPoint x="120" y="410" as="targetPoint" />
          </mxGeometry>
        </mxCell>
        <mxCell id="Qde1e1kA7MSNwPP84bWM-25" value="" style="endArrow=none;html=1;rounded=0;fontSize=14;exitX=1;exitY=0.5;exitDx=0;exitDy=0;" parent="1" source="Qde1e1kA7MSNwPP84bWM-20" target="Qde1e1kA7MSNwPP84bWM-2" edge="1">
          <mxGeometry width="50" height="50" relative="1" as="geometry">
            <mxPoint x="460" y="180" as="sourcePoint" />
            <mxPoint x="520" y="190" as="targetPoint" />
          </mxGeometry>
        </mxCell>
        <mxCell id="Qde1e1kA7MSNwPP84bWM-26" value="Řidič" style="shape=umlActor;verticalLabelPosition=bottom;verticalAlign=top;html=1;outlineConnect=0;fontSize=12;" parent="1" vertex="1">
          <mxGeometry x="600" y="540" width="30" height="60" as="geometry" />
        </mxCell>
        <mxCell id="wM-L03-5KIFUmMX-lI7g-7" style="edgeStyle=none;rounded=0;orthogonalLoop=1;jettySize=auto;html=1;endArrow=none;endFill=0;" edge="1" parent="1" source="Qde1e1kA7MSNwPP84bWM-27" target="Qde1e1kA7MSNwPP84bWM-32">
          <mxGeometry relative="1" as="geometry" />
        </mxCell>
        <mxCell id="wM-L03-5KIFUmMX-lI7g-8" style="edgeStyle=none;rounded=0;orthogonalLoop=1;jettySize=auto;html=1;endArrow=none;endFill=0;" edge="1" parent="1" source="Qde1e1kA7MSNwPP84bWM-27" target="Qde1e1kA7MSNwPP84bWM-7">
          <mxGeometry relative="1" as="geometry" />
        </mxCell>
        <mxCell id="Qde1e1kA7MSNwPP84bWM-27" value="Převzetí nakládky" style="ellipse;whiteSpace=wrap;html=1;" parent="1" vertex="1">
          <mxGeometry x="310" y="460" width="110" height="60" as="geometry" />
        </mxCell>
        <mxCell id="Qde1e1kA7MSNwPP84bWM-30" value="" style="endArrow=none;html=1;rounded=0;fontSize=14;exitX=1;exitY=0.5;exitDx=0;exitDy=0;" parent="1" source="Qde1e1kA7MSNwPP84bWM-27" target="Qde1e1kA7MSNwPP84bWM-26" edge="1">
          <mxGeometry width="50" height="50" relative="1" as="geometry">
            <mxPoint x="490" y="540" as="sourcePoint" />
            <mxPoint x="530" y="540" as="targetPoint" />
          </mxGeometry>
        </mxCell>
        <mxCell id="Qde1e1kA7MSNwPP84bWM-31" value="" style="endArrow=none;html=1;rounded=0;fontSize=14;exitX=1;exitY=0.5;exitDx=0;exitDy=0;" parent="1" source="Qde1e1kA7MSNwPP84bWM-56" target="Qde1e1kA7MSNwPP84bWM-3" edge="1">
          <mxGeometry width="50" height="50" relative="1" as="geometry">
            <mxPoint x="460" y="670" as="sourcePoint" />
            <mxPoint x="540" y="660" as="targetPoint" />
          </mxGeometry>
        </mxCell>
        <mxCell id="Qde1e1kA7MSNwPP84bWM-32" value="Pracovník depa" style="shape=umlActor;verticalLabelPosition=bottom;verticalAlign=top;html=1;outlineConnect=0;" parent="1" vertex="1">
          <mxGeometry x="130" y="490" width="30" height="60" as="geometry" />
        </mxCell>
        <mxCell id="Qde1e1kA7MSNwPP84bWM-35" value="" style="ellipse;whiteSpace=wrap;html=1;" parent="1" vertex="1">
          <mxGeometry x="310" y="600" width="110" height="60" as="geometry" />
        </mxCell>
        <mxCell id="Qde1e1kA7MSNwPP84bWM-38" value="" style="endArrow=none;html=1;rounded=0;fontSize=14;entryX=0;entryY=0.5;entryDx=0;entryDy=0;" parent="1" source="Qde1e1kA7MSNwPP84bWM-32" target="Qde1e1kA7MSNwPP84bWM-35" edge="1">
          <mxGeometry width="50" height="50" relative="1" as="geometry">
            <mxPoint x="160" y="795" as="sourcePoint" />
            <mxPoint x="304" y="765" as="targetPoint" />
          </mxGeometry>
        </mxCell>
        <mxCell id="Qde1e1kA7MSNwPP84bWM-56" value="Předání balíčku" style="ellipse;whiteSpace=wrap;html=1;" parent="1" vertex="1">
          <mxGeometry x="310" y="390" width="110" height="60" as="geometry" />
        </mxCell>
        <mxCell id="Qde1e1kA7MSNwPP84bWM-57" value="" style="endArrow=none;html=1;rounded=0;fontSize=14;exitX=0;exitY=0;exitDx=0;exitDy=0;" parent="1" source="Qde1e1kA7MSNwPP84bWM-56" target="Qde1e1kA7MSNwPP84bWM-7" edge="1">
          <mxGeometry width="50" height="50" relative="1" as="geometry">
            <mxPoint x="296" y="600" as="sourcePoint" />
            <mxPoint x="140" y="490.52631578947376" as="targetPoint" />
          </mxGeometry>
        </mxCell>
        <mxCell id="wM-L03-5KIFUmMX-lI7g-4" style="rounded=0;orthogonalLoop=1;jettySize=auto;html=1;endArrow=none;endFill=0;" edge="1" parent="1" source="wM-L03-5KIFUmMX-lI7g-2" target="Qde1e1kA7MSNwPP84bWM-2">
          <mxGeometry relative="1" as="geometry" />
        </mxCell>
        <mxCell id="wM-L03-5KIFUmMX-lI7g-6" style="edgeStyle=none;rounded=0;orthogonalLoop=1;jettySize=auto;html=1;endArrow=none;endFill=0;exitX=0;exitY=0.5;exitDx=0;exitDy=0;" edge="1" parent="1" source="wM-L03-5KIFUmMX-lI7g-2">
          <mxGeometry relative="1" as="geometry">
            <mxPoint x="160" y="340" as="targetPoint" />
          </mxGeometry>
        </mxCell>
        <mxCell id="wM-L03-5KIFUmMX-lI7g-2" value="Zrušení objednávky" style="ellipse;whiteSpace=wrap;html=1;" vertex="1" parent="1">
          <mxGeometry x="310" y="180" width="110" height="60" as="geometry" />
        </mxCell>
      </root>
    </mxGraphModel>
  </diagram>
</mxfile>
